<?xml version="1.0" standalone="no"?>
<!DOCTYPE svg PUBLIC "-//W3C//DTD SVG 20010904//EN"
 "http://www.w3.org/TR/2001/REC-SVG-20010904/DTD/svg10.dtd">
<svg version="1.0" xmlns="http://www.w3.org/2000/svg"
 width="300.000000pt" height="300.000000pt" viewBox="0 0 300.000000 300.000000"
 preserveAspectRatio="xMidYMid meet">
<metadata>
Created by potrace 1.14, written by Peter Selinger 2001-2017
</metadata>
<g transform="translate(0.000000,300.000000) scale(0.100000,-0.100000)"
fill="#000000" stroke="none">
<path d="M397 2602 l-157 -157 157 -158 158 -157 -158 -158 -157 -157 157
-158 158 -157 -158 -158 -157 -157 157 -158 158 -157 -158 -158 -157 -157 158
-158 157 -157 158 157 157 158 157 -158 158 -157 157 157 158 158 158 -158
157 -157 158 157 157 158 158 -158 157 -157 158 158 157 157 -157 158 -158
157 158 157 157 158 -157 157 -158 158 158 157 157 158 -157 157 -158 158 158
158 157 157 -158 158 -157 157 -158 -157 -157 -158 -158 158 -157 157 -158
-157 -157 -158 -158 158 -157 157 -158 -157 -157 -158 -158 158 -157 157 -158
-158z m633 -317 l155 -155 -158 0 -157 0 0 -157 0 -158 -157 157 -158 158 155
155 c85 85 157 155 160 155 3 0 75 -70 160 -155z m630 0 l155 -155 -315 0
-315 0 155 155 c85 85 157 155 160 155 3 0 75 -70 160 -155z m630 0 l155 -155
-158 -158 -157 -157 0 158 0 157 -157 0 -158 0 155 155 c85 85 157 155 160
155 3 0 75 -70 160 -155z m-600 -500 l190 95 -95 -190 -95 -190 95 -190 95
-190 -190 95 -190 95 -190 -95 -190 -95 95 190 95 190 -95 190 -94 190 189
-95 190 -95 190 95z m-820 -287 l0 -313 -157 157 -158 158 155 155 c85 85 156
155 157 155 2 0 3 -141 3 -312z m1417 -155 l-157 -158 0 315 0 315 157 -158
158 -157 -158 -157z m-1259 -473 l157 0 -158 -157 -157 -158 -157 157 -158
158 155 155 155 155 3 -155 3 -155 157 0z m1259 -157 l-157 -158 -157 158
-158 157 158 0 157 0 0 157 0 158 157 -158 158 -157 -158 -157z m-630 0 l-157
-158 -157 158 -158 157 315 0 315 0 -158 -157z"/>
</g>
</svg>
